PathFileType	4	(X/Y/Z)	D:\luciana\static.trc
DataRate	CameraRate	NumFrames	NumMarkers	Units	OrigDataRate	OrigDataStartFrame	OrigNumFrames
250.00	250.00	16	21	mm	250.00	577	922
Frame#	Time	pelvisR			PelvisL			Trunk1			Trunk2			Trunk3			C7			shoulder			upperArm1			upperArm2			upperArm3			elbow			forearm1			forearm2			forearm3			wrist1			wrist2			wrist3			wristOut			wristIn			elbowInt			hand			
		X1	Y1	Z1	X2	Y2	Z2	X3	Y3	Z3	X4	Y4	Z4	X5	Y5	Z5	X6	Y6	Z6	X7	Y7	Z7	X8	Y8	Z8	X9	Y9	Z9	X10	Y10	Z10	X11	Y11	Z11	X12	Y12	Z12	X13	Y13	Z13	X14	Y14	Z14	X15	Y15	Z15	X16	Y16	Z16	X17	Y17	Z17	X18	Y18	Z18	X19	Y19	Z19	X20	Y20	Z20	X21	Y21	Z21	

576	2.304000	1409.930825	637.612760	656.147361	1744.308233	653.370142	651.115775	1516.696453	872.843862	562.590957	1579.792023	819.609821	560.521007	1491.309524	780.129969	562.118232	1581.575632	1132.242203	743.160069	1752.234340	1067.642450	676.751733	1861.999869	931.596875	773.363352	1903.468132	942.309082	710.224330	1851.900458	916.683435	651.285708	1916.177273	798.147738	701.861143	1921.846151	701.689065	717.550874	1935.873270	731.783807	642.529428	1872.054338	766.338646	625.951052	1836.291194	673.953891	543.748498	1868.857980	614.146352	584.829271	1775.050044	693.547964	580.181003	1822.894096	603.334606	562.694311	1767.648458	646.237791	563.060284	1857.880354	763.178170	766.007125	1791.630387	610.485077	502.630472	
577	2.308000	1409.936666	637.601733	656.139672	1744.316101	653.369725	651.114464	1516.703248	872.855306	562.596202	1579.782367	819.616437	560.520172	1491.344929	780.142426	562.074482	1581.564188	1132.243395	743.172646	1752.231956	1067.651629	676.743388	1862.015963	931.595743	773.352563	1903.469563	942.309558	710.209608	1851.903081	916.685939	651.274204	1916.166306	798.146605	701.854825	1921.835065	701.690316	717.534363	1935.888052	731.795430	642.524123	1872.060299	766.340375	625.954628	1836.284041	673.954129	543.739796	1868.828058	614.122093	584.891796	1775.049090	693.543017	580.174565	1822.916985	603.331804	562.691689	1767.650247	646.209836	563.065052	1857.871652	763.170362	765.975237	1791.643620	610.502362	502.624393	
578	2.312000	1409.936786	637.588859	656.160831	1744.316339	653.374255	651.083350	1516.690135	872.890472	562.593937	1579.772234	819.620728	560.517430	1491.345406	780.166566	562.077999	1581.559181	1132.246733	743.191004	1752.221584	1067.656755	676.727057	1862.020254	931.598365	773.345411	1903.472185	942.311406	710.204840	1851.903677	916.680753	651.269019	1916.175127	798.160315	701.841533	1921.841741	701.692224	717.517734	1935.915589	731.803298	642.498732	1872.061968	766.341865	625.953317	1836.272001	673.945785	543.737769	1868.808389	614.111185	584.918857	1775.052071	693.544447	580.166221	1822.925448	603.356183	562.710047	1767.642856	646.245837	563.037872	1857.880235	763.186038	765.971899	1791.660905	610.530794	502.603650	
579	2.316000	1409.931779	637.588620	656.155348	1744.314909	653.363645	651.075006	1516.660094	872.871339	562.578976	1579.760075	819.628656	560.504317	1491.338730	780.171752	562.082291	1581.542730	1132.234216	743.183911	1752.234221	1067.671776	676.739275	1862.019181	931.606770	773.337841	1903.476119	942.316353	710.196197	1851.897597	916.691363	651.264191	1916.179180	798.172712	701.833248	1921.851158	701.707363	717.517257	1935.916543	731.802344	642.483711	1872.071266	766.355038	625.936389	1836.261272	673.931479	543.733776	1868.808270	614.120364	584.907174	1775.066853	693.555415	580.148578	1822.924376	603.366733	562.702060	1767.656207	646.284342	563.022256	1857.890129	763.211310	765.989602	1791.659355	610.541284	502.605081	
580	2.320000	1409.918070	637.601972	656.143606	1744.319439	653.367758	651.098192	1516.642094	872.868538	562.565506	1579.759359	819.634676	560.495794	1491.331458	780.190825	562.054515	1581.556082	1132.216930	743.180752	1752.236128	1067.680836	676.749110	1862.025499	931.606233	773.335814	1903.484821	942.324519	710.182548	1851.886868	916.698694	651.247740	1916.178584	798.188627	701.833010	1921.850920	701.708913	717.505217	1935.911059	731.805682	642.475069	1872.075319	766.368449	625.914752	1836.262822	673.921108	543.730199	1868.799210	614.108086	584.893465	1775.058508	693.555176	580.144763	1822.918415	603.368044	562.683105	1767.653584	646.288097	563.005567	1857.892156	763.207793	765.973091	1791.663170	610.536098	502.612352	
581	2.324000	1409.913778	637.601018	656.136870	1744.313359	653.364301	651.081800	1516.663909	872.878313	562.556326	1579.760313	819.635868	560.484827	1491.327286	780.208647	562.042534	1581.549644	1132.213116	743.202209	1752.240896	1067.696571	676.756322	1862.041473	931.612730	773.320317	1903.488278	942.333817	710.171938	1851.893425	916.705728	651.231468	1916.184664	798.195899	701.799214	1921.855927	701.714933	717.489481	1935.903907	731.796741	642.461181	1872.059941	766.364455	625.905752	1836.257458	673.911572	543.723464	1868.810892	614.103138	584.888220	1775.049686	693.550229	580.146074	1822.913170	603.382707	562.669039	1767.647624	646.253765	562.992454	1857.892513	763.206422	765.955329	1791.667223	610.535979	502.618790	
582	2.328000	1409.936905	637.594879	656.116366	1744.307637	653.377712	651.061475	1516.675711	872.883976	562.548697	1579.764605	819.651365	560.472906	1491.321802	780.220211	562.039852	1581.551909	1132.218122	743.206382	1752.240777	1067.703843	676.762104	1862.039447	931.623101	773.307025	1903.485060	942.336380	710.162997	1851.906180	916.719198	651.235580	1916.189194	798.200250	701.783419	1921.857715	701.722026	717.480719	1935.921192	731.798708	642.444611	1872.060776	766.365349	625.902057	1836.249232	673.910856	543.709993	1868.810892	614.114583	584.867001	1775.048733	693.553269	580.138087	1822.902799	603.384376	562.649310	1767.655134	646.259069	562.995553	1857.897758	763.208330	765.949130	1791.661263	610.529661	502.583623	
583	2.332000	1409.924626	637.591839	656.131625	1744.311333	653.375864	651.053905	1516.677618	872.891128	562.540293	1579.759240	819.665074	560.470760	1491.329908	780.229509	562.013865	1581.552625	1132.228017	743.212461	1752.242327	1067.712426	676.754355	1862.039328	931.621552	773.294270	1903.492212	942.346931	710.151970	1851.903200	916.726828	651.220798	1916.182756	798.191130	701.778948	1921.855807	701.735735	717.476368	1935.927510	731.808662	642.419100	1872.076154	766.370058	625.890017	1836.251736	673.921824	543.689191	1868.814707	614.133358	584.852040	1775.051355	693.556905	580.133617	1822.899938	603.365421	562.650859	1767.647982	646.268785	562.981784	1857.904315	763.228238	765.940607	1791.644573	610.514522	502.573192	
584	2.336000	1409.918666	637.581825	656.144798	1744.321704	653.366446	651.048183	1516.677141	872.914135	562.517583	1579.755664	819.685578	560.477734	1491.348982	780.244112	561.990142	1581.550837	1132.238269	743.228078	1752.226472	1067.722559	676.737547	1862.052441	931.630552	773.289263	1903.498173	942.354798	710.149467	1851.905823	916.730523	651.204169	1916.180015	798.196495	701.765597	1921.864271	701.746583	717.462420	1935.934305	731.821001	642.400980	1872.078419	766.377985	625.880837	1836.254239	673.933983	543.678641	1868.811607	614.134252	584.845304	1775.060534	693.560123	580.127716	1822.903275	603.344679	562.657595	1767.640233	646.288753	562.970996	1857.914448	763.240337	765.936255	1791.624784	610.516071	502.606153	
585	2.340000	1409.918666	637.581468	656.145394	1744.324327	653.362453	651.039600	1516.673446	872.953057	562.500238	1579.768658	819.709182	560.482562	1491.362691	780.251622	561.971426	1581.560373	1132.248163	743.249595	1752.224565	1067.729950	676.729500	1862.045765	931.635499	773.281813	1903.496981	942.360997	710.144758	1851.897717	916.737318	651.202798	1916.191101	798.205078	701.756597	1921.868086	701.749861	717.460990	1935.945868	731.814623	642.370641	1872.077823	766.382933	625.870585	1836.259127	673.939466	543.672085	1868.805647	614.144802	584.837139	1775.056601	693.561792	580.112338	1822.906017	603.363872	562.661886	1767.642975	646.266043	562.976837	1857.926965	763.251901	765.945554	1791.638851	610.542417	502.599299	
586	2.344000	1409.922838	637.572706	656.132638	1744.324088	653.356493	651.017308	1516.682863	872.978866	562.490702	1579.790115	819.736123	560.481727	1491.360903	780.255497	561.979413	1581.592441	1132.266521	743.256629	1752.231240	1067.736506	676.723719	1862.042427	931.640983	773.272097	1903.498411	942.366719	710.135579	1851.892948	916.734219	651.195765	1916.197777	798.204422	701.746941	1921.865463	701.753676	717.439651	1935.958385	731.822968	642.361522	1872.076988	766.388059	625.860095	1836.268067	673.953593	543.665826	1868.803859	614.147305	584.846020	1775.056481	693.566144	580.095828	1822.906852	603.378713	562.649488	1767.653465	646.253824	562.993646	1857.937694	763.248324	765.927136	1791.649580	610.536933	502.584338	
587	2.348000	1409.919143	637.582242	656.121910	1744.330406	653.357744	651.023805	1516.707659	873.007834	562.459111	1579.796791	819.755256	560.468554	1491.356611	780.260801	561.984062	1581.585169	1132.262588	743.261576	1752.235174	1067.738175	676.731825	1862.049103	931.633711	773.262858	1903.496265	942.374349	710.129857	1851.901650	916.747391	651.172519	1916.196823	798.209429	701.740801	1921.873450	701.757193	717.424572	1935.938239	731.814921	642.349422	1872.081995	766.389191	625.850499	1836.271048	673.964322	543.661833	1868.893504	614.183068	584.692955	1775.070667	693.570971	580.097079	1822.897196	603.367329	562.641323	1767.640352	646.249831	563.000858	1857.934475	763.242364	765.884757	1791.638732	610.529482	502.582073	
588	2.352000	1409.899592	637.598634	656.137943	1744.340539	653.351307	651.044071	1516.698003	873.013437	562.462926	1579.802752	819.772720	560.454011	1491.353989	780.273736	561.982989	1581.588984	1132.266283	743.269205	1752.232790	1067.739010	676.735222	1862.064123	931.634784	773.250461	1903.500557	942.378879	710.113645	1851.914167	916.766524	651.172757	1916.209817	798.223376	701.722920	1922.895908	701.800108	717.244923	1935.960412	731.829643	642.333269	1872.077107	766.387880	625.841141	1836.274624	673.968911	543.655157	1869.010210	614.241242	584.464908	1775.072694	693.563163	580.096126	1822.892904	603.354573	562.643468	1767.643690	646.266818	562.991977	1857.954621	763.258517	765.885651	1791.633964	610.528708	502.582788	
589	2.356000	1409.893990	637.579978	656.163573	1744.334817	653.353512	651.029587	1516.685247	873.022139	562.437057	1579.804420	819.781125	560.450733	1491.361499	780.304670	561.973333	1581.600308	1132.280707	743.287206	1752.236843	1067.748904	676.727772	1862.066150	931.646645	773.244023	1903.497458	942.388058	710.101128	1851.927996	916.780889	651.168823	1916.219473	798.238993	701.697648	1924.163222	701.847374	717.014313	1935.979962	731.846392	642.323017	1872.071028	766.396999	625.828564	1836.280346	673.959494	543.648005	1868.857622	614.170611	584.732294	1775.077224	693.565071	580.090523	1822.905302	603.357852	562.626600	1767.658234	646.307707	563.024223	1857.957363	763.248444	765.862942	1791.628003	610.517800	502.585351	
590	2.360000	1409.900188	637.568295	656.168699	1744.323850	653.361320	651.022553	1516.672969	873.025000	562.399864	1579.800844	819.791198	560.442686	1491.373658	780.321360	561.955750	1581.611395	1132.282495	743.285418	1752.247214	1067.759275	676.728964	1862.062216	931.652069	773.223996	1903.500199	942.401230	710.087895	1851.932287	916.791320	651.149631	1916.222930	798.250794	701.677680	1922.475100	701.789200	717.288971	1935.961962	731.855512	642.327785	1872.064710	766.396046	625.811577	1836.281300	673.956871	543.639660	1868.822575	614.147365	584.780753	1775.074720	693.564713	580.087721	1822.906494	603.362322	562.624574	1767.655611	646.279156	562.988281	1857.954860	763.251424	765.828013	1791.642785	610.528886	502.584338	
591	2.364000	1409.925818	637.566566	656.136870	1744.319916	653.371215	651.001692	1516.634703	873.014927	562.396288	1579.800367	819.792867	560.429692	1491.388083	780.342817	561.956584	1581.595182	1132.279873	743.285298	1752.249956	1067.780375	676.738858	1862.062812	931.655288	773.210824	1903.500676	942.413211	710.072696	1851.921916	916.794360	651.135683	1916.222811	798.248351	701.653659	1922.052622	701.781988	717.339039	1935.941577	731.861353	642.306805	1872.069955	766.396105	625.784099	1836.275220	673.952103	543.632269	1868.817210	614.133656	584.791780	1775.069475	693.565965	580.081642	1822.905540	603.346884	562.619507	1767.655373	646.259665	562.950313	1857.971072	763.290524	765.826166	1791.617632	610.524714	502.578735	
